<svg width="40" height="41" viewBox="0 0 40 41" fill="none" xmlns="http://www.w3.org/2000/svg">
<path d="M15.3361 9.68332C14.7661 9.30832 13.9991 9.46632 13.6241 10.0363L12.2811 11.4813L11.9431 9.84232L11.1431 5.14232V5.14132C11.0431 4.55432 10.4971 4.15832 9.92311 4.25632C9.34911 4.35432 8.96511 4.90832 9.06511 5.49532L9.75311 9.53932L9.23111 9.64732L8.11011 5.03332C7.97011 4.45532 7.39711 4.09832 6.83211 4.23532C6.26611 4.37232 5.92211 4.95232 6.06211 5.53132L7.17211 10.1003L6.74411 10.3113L5.23911 6.52032C5.02411 5.97832 4.41111 5.71332 3.87011 5.92832C3.32911 6.14332 3.06511 6.75632 3.28011 7.29832L4.84711 11.2453L4.32311 11.5033L3.00911 8.76732C2.75111 8.22932 2.11611 7.99732 1.59111 8.24932C1.06611 8.50132 0.85111 9.14132 1.10911 9.67932L3.58111 14.8263L3.59011 14.8203C4.43711 17.1963 6.92111 18.6493 9.46211 18.1253C10.8521 17.8383 11.9941 17.0153 12.7171 15.9163L15.6911 11.3973C16.0661 10.8273 15.9081 10.0603 15.3381 9.68532L15.3361 9.68332Z" fill="#FFCBA7"/>
<path d="M26.9204 25.4565L26.8564 25.8285C26.6624 26.9535 25.5934 27.7085 24.4674 27.5145C23.3424 27.3205 22.5874 26.2505 22.7814 25.1255L22.8454 24.7545C22.3454 24.7145 21.8414 24.6805 21.3224 24.6705L20.6334 24.6065C14.6654 23.7025 13.7364 18.2415 13.5594 16.4705C13.5324 16.2005 13.3044 16.0015 13.0334 16.0085L4.08036 16.2225C3.78936 16.2295 3.55336 16.4715 3.57236 16.7615C3.86736 21.1465 6.68836 28.4105 13.6904 31.9325C13.8324 32.0045 13.9254 32.1475 13.9264 32.3065L13.9734 37.7295C13.9754 37.9665 14.1674 38.1565 14.4044 38.1565H37.8264C37.8264 32.2095 33.6664 27.3015 26.9184 25.4575L26.9204 25.4565Z" fill="#AAB6C6"/>
<path d="M33.5198 21.1012C32.2968 22.8092 30.4758 24.0052 28.4258 24.4662L32.0238 25.2212C32.8098 25.3862 33.5998 24.9552 33.8848 24.2042L35.0758 21.0742C34.5828 21.1892 34.0568 21.2142 33.5198 21.1012Z" fill="#333333"/>
<path d="M18.1392 17.8711H18.1292C17.4352 17.7211 16.8322 17.3851 16.3672 16.9331L16.5072 20.7001C16.5352 21.4491 17.0692 22.0831 17.8032 22.2371L21.4282 22.9981C19.7442 21.7541 18.5662 19.9311 18.1392 17.8711Z" fill="#333333"/>
<path d="M18.3919 13.5243L25.2479 8.47735C25.2479 8.47735 30.8519 15.3053 35.3619 15.9443C35.4609 15.9583 35.5819 15.9483 35.7029 15.9233C36.0209 15.8223 36.3209 15.5893 36.5339 15.6713C36.5429 15.6743 36.5539 15.6713 36.5629 15.6753C37.8609 9.91435 33.8799 4.15235 27.8599 3.54835C23.2299 3.08435 18.8309 6.00335 17.4519 10.4473C17.3119 10.8993 17.2049 11.3523 17.1299 11.8043C17.1299 11.8043 17.1669 11.8073 17.2179 11.8173C17.4419 11.8603 18.0679 12.1043 18.3919 13.5243Z" fill="#333333"/>
<path d="M36.5345 15.6715C36.3215 15.5895 36.0215 15.8225 35.7035 15.9235C35.5815 15.9475 35.4615 15.9585 35.3625 15.9445C30.8525 15.3055 25.2485 8.47754 25.2485 8.47754L18.3925 13.5245C18.0675 12.1055 17.4415 11.8615 17.2185 11.8175C16.3305 12.2375 15.6485 13.0145 15.4405 14.0115C15.2095 15.0995 15.5955 16.1785 16.3685 16.9335C16.8325 17.3865 17.4365 17.7225 18.1305 17.8715H18.1405C18.5685 19.9315 19.7455 21.7545 21.4295 22.9975C21.9115 23.3535 22.4295 23.6695 22.9905 23.9215L22.8505 24.7515L22.7805 25.1215C22.5905 26.2515 23.3405 27.3215 24.4705 27.5115C25.5905 27.7115 26.6605 26.9515 26.8605 25.8315L26.9205 25.4615L27.0605 24.6715C27.5255 24.6445 27.9795 24.5675 28.4265 24.4665C30.4765 24.0055 32.2975 22.8095 33.5205 21.1015C34.0575 21.2145 34.5835 21.1905 35.0765 21.0755C36.2905 20.7915 37.2775 19.8895 37.5405 18.6525C37.7805 17.5335 37.3545 16.4275 36.5355 15.6725L36.5345 15.6715Z" fill="#FFCBA7"/>
<path d="M25.1542 15.3746C25.2788 14.7812 24.9789 14.2159 24.4843 14.1121C23.9898 14.0083 23.4879 14.4052 23.3633 14.9987C23.2387 15.5921 23.5386 16.1574 24.0332 16.2612C24.5277 16.3651 25.0297 15.9681 25.1542 15.3746Z" fill="black"/>
<path d="M29.8837 16.3673C30.0083 15.7738 29.7084 15.2086 29.2138 15.1048C28.7193 15.0009 28.2174 15.3979 28.0928 15.9913C27.9682 16.5848 28.2681 17.1501 28.7627 17.2539C29.2572 17.3577 29.7591 16.9608 29.8837 16.3673Z" fill="black"/>
<path d="M26.8487 20.1555C27.0497 20.1975 27.1527 20.4215 27.0587 20.6045C26.7597 21.1855 26.0997 21.5205 25.4287 21.3795C24.7577 21.2385 24.2887 20.6675 24.2477 20.0145C24.2347 19.8095 24.4187 19.6455 24.6197 19.6885L26.8477 20.1565L26.8487 20.1555Z" fill="#5C2F17"/>
</svg>
