<svg width="30" height="30" viewBox="0 0 30 30" fill="none" xmlns="http://www.w3.org/2000/svg">
<path d="M24.75 10.5C27.645 10.5 30 8.145 30 5.25C30 2.355 27.645 0 24.75 0C21.855 0 19.5 2.355 19.5 5.25C19.5 8.145 21.855 10.5 24.75 10.5ZM27 22.5V13.185C26.25 13.395 25.5 13.5 24.75 13.5C24.495 13.5 24.255 13.5 24 13.5V22.5C24 24.99 21.99 27 19.5 27H7.5C5.01 27 3 24.99 3 22.5V10.5C3 8.01 5.01 6 7.5 6H16.5C16.5 5.76 16.5 5.505 16.5 5.25C16.5 4.5 16.605 3.75 16.815 3H7.5C3.36 3 0 6.36 0 10.5V22.5C0 26.64 3.36 30 7.5 30H19.5C23.64 30 27 26.64 27 22.5Z" fill="#B6B6B6"/>
</svg>
